<?xml version="1.0" encoding="utf-8"?>
<!-- Generator: Adobe Illustrator 27.5.0, SVG Export Plug-In . SVG Version: 6.00 Build 0)  -->
<svg version="1.1" xmlns="http://www.w3.org/2000/svg" xmlns:xlink="http://www.w3.org/1999/xlink" x="0px" y="0px"
	 viewBox="0 0 500 500" style="enable-background:new 0 0 500 500;" xml:space="preserve">
<g id="Background_Complete">
	<g>
		<rect y="382.398" style="fill:#EBEBEB;" width="500" height="0.25"/>
		<rect x="429.833" y="398.494" style="fill:#EBEBEB;" width="20.068" height="0.25"/>
		<rect x="357.475" y="394.986" style="fill:#EBEBEB;" width="32.025" height="0.25"/>
		<rect x="274.19" y="389.208" style="fill:#EBEBEB;" width="36.977" height="0.25"/>
		<rect x="75.455" y="396.574" style="fill:#EBEBEB;" width="43.193" height="0.25"/>
		<rect x="60.219" y="396.574" style="fill:#EBEBEB;" width="6.333" height="0.25"/>
		<rect x="131.746" y="389.083" style="fill:#EBEBEB;" width="37.48" height="0.25"/>
		<path style="fill:#EBEBEB;" d="M237.014,337.8H43.915c-3.147,0-5.708-2.56-5.708-5.708V60.66c0-3.147,2.561-5.708,5.708-5.708
			h193.099c3.146,0,5.707,2.561,5.707,5.708v271.432C242.721,335.239,240.16,337.8,237.014,337.8z M43.915,55.203
			c-3.01,0-5.458,2.448-5.458,5.458v271.432c0,3.01,2.448,5.458,5.458,5.458h193.099c3.009,0,5.457-2.448,5.457-5.458V60.66
			c0-3.009-2.448-5.458-5.457-5.458H43.915z"/>
		<path style="fill:#EBEBEB;" d="M453.31,337.8H260.212c-3.147,0-5.707-2.56-5.707-5.708V60.66c0-3.147,2.561-5.708,5.707-5.708
			H453.31c3.148,0,5.708,2.561,5.708,5.708v271.432C459.019,335.239,456.458,337.8,453.31,337.8z M260.212,55.203
			c-3.009,0-5.457,2.448-5.457,5.458v271.432c0,3.01,2.448,5.458,5.457,5.458H453.31c3.01,0,5.458-2.448,5.458-5.458V60.66
			c0-3.009-2.448-5.458-5.458-5.458H260.212z"/>
	</g>
	<g>
		<g>
			<g>
				<path style="fill:#F5F5F5;" d="M127.964,287.056c-9.809-31.68-32.99-121.331-9.623-199.26c0.331-1.102-1.246-1.711-1.736-0.67
					c-1.504,3.191-2.873,6.828-4.11,10.848c-0.298,0.969-1.709,0.832-1.818-0.175c-0.729-6.768-1.367-16.26-1.009-27.22
					c0.036-1.119-1.576-1.335-1.846-0.248c-2.231,8.986-2.881,17.468-2.763,24.765c0.019,1.148-1.643,1.323-1.85,0.194
					c-0.634-3.465-1.222-7.193-1.71-11.13c-0.137-1.109-1.763-1.08-1.86,0.033c-1.81,20.633,3.801,37.543,6.67,44.612
					c-0.005,0.046-0.012,0.091-0.018,0.137c-3.489-7.601-9.908-23.123-14.637-43.486c-0.247-1.064-1.817-0.91-1.846,0.182
					c-0.206,7.941,0.431,15.393,1.572,22.22c0.191,1.144-1.471,1.531-1.816,0.423c-0.428-1.375-0.845-2.774-1.248-4.195
					c-0.294-1.039-1.83-0.825-1.835,0.255c-0.053,10.09,1.329,19.849,3.328,28.643c0.255,1.122-1.349,1.622-1.774,0.553
					c-3.557-8.941-7.133-18.94-10.26-29.566c-0.307-1.042-1.85-0.818-1.834,0.269c0.553,36.797,20.725,71.72,27.809,82.875
					c0,0.01,0.001,0.019,0.001,0.029c-7.239-10.88-22.395-35.145-35.313-65.58c-0.424-1-1.925-0.6-1.79,0.478
					c1.546,12.343,5.011,24.278,9.344,35.244c0.43,1.088-1.128,1.816-1.685,0.787c-2.398-4.439-4.748-9.042-6.986-13.767
					c-0.462-0.975-1.933-0.53-1.77,0.537c2.625,17.258,9.403,34.878,16.794,50.088c0.522,1.073-1.044,1.911-1.646,0.881
					c-3.564-6.099-7.046-12.693-10.226-19.695c-0.434-0.956-1.865-0.583-1.78,0.464c0.994,12.223,4.804,23.739,9.818,34.022
					c0.507,1.04-0.968,1.89-1.613,0.929c-3.237-4.83-6.444-9.932-9.514-15.258c-0.524-0.91-1.914-0.396-1.727,0.637
					c2.706,14.919,9.409,28.62,17.114,40.238c0.645,0.972-0.722,2.008-1.483,1.124c-5.402-6.27-10.857-13.153-15.911-20.452
					c-0.597-0.862-1.934-0.242-1.668,0.773c10.255,39.227,53.358,70.632,54.174,71.224c0.013,0.01,0.019,0.013,0.033,0.022
					l3.43,2.221C124.807,294.298,129.183,290.993,127.964,287.056z"/>
				<path style="fill:#E6E6E6;" d="M143.349,268.317c-1.813-27.148-3.29-103.105,30.159-160.866c0.473-0.817-0.67-1.602-1.259-0.864
					c-1.806,2.262-3.59,4.904-5.341,7.878c-0.422,0.716-1.522,0.34-1.417-0.485c0.703-5.54,1.997-13.237,4.363-21.917
					c0.242-0.886-1.004-1.365-1.426-0.548c-3.487,6.748-5.617,13.395-6.908,19.241c-0.203,0.92-1.563,0.744-1.513-0.197
					c0.152-2.886,0.391-5.973,0.749-9.208c0.101-0.911-1.202-1.197-1.491-0.327c-5.363,16.124-4.096,30.687-3.148,36.873
					c-0.013,0.036-0.027,0.07-0.04,0.106c-1.342-6.729-3.517-20.337-3.424-37.488c0.005-0.896-1.278-1.072-1.508-0.206
					c-1.673,6.299-2.579,12.368-2.965,18.033c-0.065,0.95-1.465,0.943-1.53-0.007c-0.081-1.179-0.148-2.374-0.199-3.585
					c-0.038-0.885-1.304-1.006-1.513-0.145c-1.958,8.043-2.708,16.095-2.783,23.494c-0.01,0.944-1.385,1.038-1.521,0.104
					c-1.141-7.812-2.096-16.471-2.574-25.546c-0.047-0.89-1.321-1.004-1.515-0.134c-6.546,29.474,2.922,61.179,6.457,71.427
					c-0.002,0.008-0.003,0.015-0.005,0.023c-3.711-10.059-11.2-32.303-15.731-59.049c-0.149-0.879-1.423-0.844-1.52,0.041
					c-1.11,10.145-0.611,20.329,0.765,29.904c0.136,0.95-1.245,1.235-1.494,0.308c-1.071-3.998-2.073-8.119-2.962-12.315
					c-0.183-0.866-1.442-0.79-1.515,0.092c-1.182,14.273,0.881,29.623,3.892,43.167c0.213,0.956-1.196,1.327-1.481,0.39
					c-1.687-5.544-3.213-11.469-4.422-17.661c-0.165-0.846-1.378-0.82-1.509,0.032c-1.528,9.945-0.674,19.859,1.376,29.019
					c0.207,0.926-1.132,1.325-1.464,0.436c-1.667-4.47-3.257-9.151-4.696-13.985c-0.246-0.826-1.452-0.68-1.499,0.18
					c-0.673,12.421,2.074,24.63,6.018,35.366c0.33,0.898-0.957,1.465-1.397,0.616c-3.121-6.03-6.168-12.56-8.815-19.346
					c-0.313-0.802-1.498-0.56-1.479,0.3c0.736,33.256,29.174,66.508,29.713,67.135c0.009,0.01,0.012,0.014,0.022,0.024l2.316,2.424
					C139.453,273.498,143.574,271.691,143.349,268.317z"/>
				<path style="fill:#E0E0E0;" d="M106.614,295.76c1.86-23.027,4.011-87.496-23.704-136.93c-0.392-0.699,0.587-1.352,1.079-0.719
					c1.507,1.941,2.99,4.206,4.441,6.751c0.35,0.613,1.288,0.306,1.209-0.395c-0.531-4.712-1.539-11.262-3.446-18.659
					c-0.195-0.755,0.869-1.147,1.217-0.449c2.881,5.771,4.61,11.439,5.638,16.417c0.162,0.783,1.318,0.65,1.287-0.149
					c-0.095-2.452-0.261-5.076-0.527-7.827c-0.075-0.775,1.035-1.002,1.27-0.26c4.363,13.753,3.114,26.101,2.237,31.342
					c0.011,0.031,0.022,0.06,0.033,0.09c1.218-5.697,3.226-17.224,3.35-31.786c0.007-0.761,1.097-0.895,1.283-0.157
					c1.346,5.368,2.043,10.53,2.304,15.345c0.044,0.807,1.232,0.818,1.299,0.012c0.082-1,0.153-2.014,0.211-3.042
					c0.042-0.751,1.119-0.839,1.287-0.105c1.567,6.852,2.109,13.696,2.085,19.979c-0.003,0.801,1.163,0.898,1.29,0.106
					c1.061-6.619,1.974-13.959,2.487-21.658c0.05-0.755,1.134-0.837,1.287-0.096c5.21,25.1-3.203,51.906-6.326,60.565
					c0.001,0.007,0.002,0.013,0.004,0.02c3.27-8.496,9.89-27.293,14.053-49.946c0.137-0.744,1.218-0.7,1.29,0.053
					c0.822,8.626,0.278,17.266-1.003,25.379c-0.127,0.805,1.043,1.063,1.265,0.279c0.957-3.382,1.856-6.868,2.66-10.42
					c0.166-0.733,1.234-0.654,1.285,0.096c0.835,12.131-1.098,25.139-3.815,36.602c-0.192,0.809,1,1.141,1.253,0.349
					c1.497-4.687,2.864-9.699,3.963-14.942c0.15-0.716,1.18-0.68,1.281,0.045c1.18,8.461,0.338,16.868-1.511,24.621
					c-0.187,0.784,0.945,1.138,1.237,0.387c1.468-3.775,2.873-7.731,4.152-11.817c0.218-0.698,1.241-0.56,1.27,0.171
					c0.425,10.554-2.052,20.886-5.527,29.954c-0.291,0.758,0.796,1.255,1.179,0.539c2.721-5.083,5.385-10.59,7.713-16.32
					c0.275-0.677,1.278-0.458,1.252,0.272c-1.018,28.226-25.555,56.12-26.019,56.646c-0.008,0.009-0.011,0.012-0.019,0.02
					l-1.994,2.03C109.86,300.205,106.383,298.622,106.614,295.76z"/>
			</g>
			<g>
				<g>
					<g>
						<path style="fill:#EBEBEB;" d="M75.878,249.481c-6.315,0-11.353,5.261-11.066,11.569c1.47,32.343,8.789,121.35,44.837,121.35
							s43.368-89.007,44.837-121.35c0.287-6.308-4.752-11.569-11.067-11.569H75.878z"/>
					</g>
				</g>
			</g>
		</g>
		<g>
			<g>
				<rect x="194.271" y="272.182" style="fill:#F5F5F5;" width="190.167" height="5.592"/>
				
					<rect x="384.438" y="272.182" transform="matrix(-1 -1.224647e-16 1.224647e-16 -1 808.7089 549.9556)" style="fill:#E0E0E0;" width="39.833" height="5.592"/>
				<polygon style="fill:#E0E0E0;" points="404.354,277.774 402.688,277.774 383.421,382.398 385.088,382.398 				"/>
				<polygon style="fill:#E0E0E0;" points="404.354,277.774 406.021,277.774 425.288,382.398 423.621,382.398 				"/>
				<polygon style="fill:#E0E0E0;" points="214.188,277.774 212.521,277.774 193.254,382.398 194.921,382.398 				"/>
				<polygon style="fill:#E0E0E0;" points="214.188,277.774 215.855,277.774 235.121,382.398 233.455,382.398 				"/>
			</g>
			<g>
				<rect x="271.898" y="344.287" style="fill:#E6E6E6;" width="19.659" height="38.112"/>
				
					<rect x="231.139" y="344.287" transform="matrix(-1 -1.224647e-16 1.224647e-16 -1 503.0363 726.6851)" style="fill:#F5F5F5;" width="40.759" height="38.112"/>
				<rect x="231.139" y="360.436" style="fill:#F0F0F0;" width="11.799" height="7.786"/>
				<rect x="231.139" y="370.382" style="fill:#F0F0F0;" width="11.799" height="7.786"/>
				<rect x="272.201" y="341.381" style="fill:#E0E0E0;" width="20.223" height="2.905"/>
				
					<rect x="230.271" y="341.381" transform="matrix(-1 -1.224647e-16 1.224647e-16 -1 502.4718 685.668)" style="fill:#F0F0F0;" width="41.93" height="2.905"/>
			</g>
			<g>
				<rect x="345.679" y="325.905" style="fill:#E6E6E6;" width="29.14" height="56.493"/>
				
					<rect x="285.261" y="325.905" transform="matrix(-1 -1.224647e-16 1.224647e-16 -1 630.94 708.3035)" style="fill:#F5F5F5;" width="60.418" height="56.493"/>
				<rect x="319.888" y="332.374" style="fill:#F0F0F0;" width="20.879" height="18.396"/>
				<rect x="319.888" y="355.872" style="fill:#F0F0F0;" width="20.879" height="18.396"/>
				<rect x="346.128" y="321.598" style="fill:#E0E0E0;" width="29.977" height="4.307"/>
				
					<rect x="283.975" y="321.598" transform="matrix(-1 -1.224647e-16 1.224647e-16 -1 630.1032 647.5035)" style="fill:#F0F0F0;" width="62.152" height="4.307"/>
			</g>
		</g>
	</g>
</g>
<g id="Background_Simple" style="display:none;">
	<g style="display:inline;">
		<path style="fill:#407BFF;" d="M173.81,162.96c76.828-78.07,211.774-79.762,257.32,35.372
			c12.616,31.891,10.194,78.059-19.299,101.391c-39.523,31.267-76.001-10.061-117.353-5.155
			c-41.184,4.886-67.795,52.594-110.644,56.262c-37.439,3.205-77.132-18.302-99.796-46.929
			c-24.892-31.441-40.049-72.123,1.904-95.067c22.095-12.084,51.692-6.508,65.679-14.569
			C162.338,188.089,164.736,172.18,173.81,162.96z"/>
		<path style="opacity:0.9;fill:#FFFFFF;" d="M173.81,162.96c76.828-78.07,211.774-79.762,257.32,35.372
			c12.616,31.891,10.194,78.059-19.299,101.391c-39.523,31.267-76.001-10.061-117.353-5.155
			c-41.184,4.886-67.795,52.594-110.644,56.262c-37.439,3.205-77.132-18.302-99.796-46.929
			c-24.892-31.441-40.049-72.123,1.904-95.067c22.095-12.084,51.692-6.508,65.679-14.569
			C162.338,188.089,164.736,172.18,173.81,162.96z"/>
	</g>
</g>
<g id="Shadow_1_">
	<ellipse id="_x3C_Path_x3E__183_" style="fill:#F5F5F5;" cx="250" cy="416.238" rx="193.889" ry="11.323"/>
</g>
<g id="Notes">
	<g>
		<g>
			
				<rect x="427.796" y="169.42" transform="matrix(0.0443 -0.999 0.999 0.0443 242.5222 593.3952)" style="fill:#407BFF;" width="7.235" height="1.036"/>
			
				<rect x="422.619" y="150.474" transform="matrix(0.0443 -0.999 0.999 0.0443 262.263 576.1379)" style="fill:#407BFF;" width="19.287" height="1.036"/>
			<path style="fill:#407BFF;" d="M415.752,257.436H215.94c-4.747,0-8.456-3.883-8.243-8.63l6.746-150.509
				c0.213-4.747,4.27-8.63,9.017-8.63h199.812c4.747,0,8.456,3.883,8.243,8.63l-6.746,150.509
				C424.556,253.552,420.498,257.436,415.752,257.436z"/>
			<path style="opacity:0.5;fill:#FFFFFF;" d="M414.284,257.436H215.94c-4.747,0-8.456-3.883-8.243-8.63l6.746-150.509
				c0.213-4.747,4.27-8.63,9.017-8.63h198.344c4.747,0,8.456,3.883,8.243,8.63l-6.746,150.509
				C423.088,253.552,419.03,257.436,414.284,257.436z"/>
		</g>
		<g>
			<polygon style="opacity:0.4;fill:#407BFF;" points="356.04,217.32 320.283,216.995 324.754,166.83 359.057,166.83 			"/>
			<polygon style="opacity:0.4;fill:#407BFF;" points="269.649,160.791 233.884,160.633 238.121,110.458 273.886,110.616 			"/>
			<polygon style="opacity:0.4;fill:#407BFF;" points="362.193,158.167 326.211,159.688 328.415,109.703 362.962,108.244 			"/>
			<polygon style="opacity:0.4;fill:#407BFF;" points="401.879,199.544 366.731,196.784 371.614,146.658 406.035,150.263 			"/>
			<polygon style="opacity:0.4;fill:#407BFF;" points="313.604,146.983 286.082,146.243 288.848,107.67 316.046,108.079 			"/>
			<polygon style="opacity:0.4;fill:#407BFF;" points="265.608,249.995 238.577,249.426 241.343,210.854 267.302,210.36 			"/>
			<polygon style="opacity:0.4;fill:#407BFF;" points="412.217,140.693 384.667,140.764 387.797,102.149 414.82,102.079 			"/>
			<polygon style="opacity:0.4;fill:#407BFF;" points="277.153,201.516 304.398,204.657 309.271,165.362 283.269,163.181 			"/>
			<polygon style="fill:#FFFFFF;" points="354.638,215.852 318.881,215.527 323.352,165.362 359.109,165.687 			"/>
			<polygon style="fill:#FFFFFF;" points="269.366,159.66 233.609,159.336 238.08,109.171 273.836,109.495 			"/>
			<polygon style="fill:#FFFFFF;" points="360.791,156.7 324.809,158.22 327.013,108.236 362.995,106.715 			"/>
			<polygon style="fill:#FFFFFF;" points="400.78,199.029 365.329,195.316 370.212,145.19 405.663,148.903 			"/>
			<polygon style="fill:#FFFFFF;" points="313.068,145.516 285.546,144.775 288.312,106.203 315.834,106.943 			"/>
			<polygon style="fill:#FFFFFF;" points="264.697,248.699 237.176,247.959 239.941,209.386 267.463,210.127 			"/>
			<polygon style="fill:#FFFFFF;" points="411.292,140.146 383.742,140.217 386.872,101.602 414.422,101.531 			"/>
			<polygon style="fill:#FFFFFF;" points="275.751,200.048 302.996,203.189 309.112,164.854 281.867,161.713 			"/>
			<g>
				<path style="opacity:0.4;fill:#407BFF;" d="M290.157,218.42c0,0-0.181,10.472-1.657,13.581
					c4.89,1.397,14.322,1.376,14.322,1.376s2.062-10.064,1.714-14.046C301.732,218.714,290.157,218.42,290.157,218.42z"/>
				<path style="fill:#FFFFFF;" d="M290.157,218.42c0,0-1.175,10.451-2.651,13.56c4.89,1.397,13.352,2.207,13.352,2.207
					s4.159-10.863,3.678-14.856C301.732,218.714,290.157,218.42,290.157,218.42z"/>
			</g>
			<g>
				<g>
					<path style="opacity:0.4;fill:#407BFF;" d="M363.79,220.129c0,0,5.668,14.341,5.346,19.402
						c7.687-0.862,21.056-5.273,21.056-5.273s-2.865-15.789-5.608-21.007C380.282,213.995,363.79,220.129,363.79,220.129z"/>
					<path style="fill:#FFFFFF;" d="M361.939,219.054c0,0,4.759,18.412,4.436,23.473c7.687-0.862,22.506-6.804,22.506-6.804
						s-2.024-18.82-4.961-23.977C379.618,212.489,361.939,219.054,361.939,219.054z"/>
				</g>
				<path style="opacity:0.4;fill:#407BFF;" d="M380.669,216.116c-0.041,0.91-0.811,1.647-1.721,1.647
					c-0.909,0-1.614-0.737-1.573-1.647c0.041-0.91,0.811-1.647,1.721-1.647C380.006,214.469,380.71,215.206,380.669,216.116z"/>
			</g>
			<path style="fill:#407BFF;" d="M270.735,109.519c-0.069,1.548-1.381,2.803-2.929,2.803c-1.548,0-2.747-1.255-2.678-2.803
				c0.069-1.548,1.381-2.803,2.929-2.803C269.606,106.715,270.804,107.97,270.735,109.519z"/>
			<path style="fill:#407BFF;" d="M289.329,162.614c-0.049,1.099-0.98,1.991-2.08,1.991c-1.099,0-1.951-0.891-1.901-1.991
				c0.049-1.1,0.98-1.991,2.08-1.991C288.527,160.623,289.379,161.514,289.329,162.614z"/>
			<path style="fill:#407BFF;" d="M374.025,122.864c-0.049,1.1-0.98,1.991-2.08,1.991c-1.099,0-1.951-0.891-1.901-1.991
				c0.049-1.099,0.98-1.991,2.08-1.991S374.074,121.765,374.025,122.864z"/>
		</g>
	</g>
</g>
<g id="Character_1_">
	<g>
		<path style="fill:#B55B52;" d="M154.646,132.739c1.08,5.509,2.158,15.604-1.697,19.28c0,0,3.904,7.29,13.276,11.213
			c7.37-4.617,3.846-11.213,3.846-11.213c-6.144-1.467-5.985-6.025-4.915-10.306L154.646,132.739z"/>
		<path style="fill:#263238;" d="M147.339,134.618c-4.53-0.459-18.008,18.572,8.081,27.06c-4.244-3.932-6.347-7.739-5.243-12.233
			c1.105-4.494,0.547-10.583,0.547-10.583S152.27,135.117,147.339,134.618z"/>
		<path style="fill:#407BFF;" d="M150.1,157.765c-1.034-1.19-1.72-2.41-2.158-3.594c-1.392-3.764,1.883-7.687,5.859-7.139
			c2.307,0.318,5.207,0.461,8.468,0.056c6.376-0.792,9.717,2.417,13.172,9.305l0.001,0.002c0,0-1.616,2.98-6.445,4.175
			C164.169,161.767,150.1,157.765,150.1,157.765z"/>
		<path style="fill:#263238;" d="M178.224,127.879c-0.175,0.728,0.068,1.411,0.544,1.526c0.476,0.115,1.004-0.383,1.179-1.111
			c0.175-0.728-0.068-1.411-0.544-1.526C178.928,126.653,178.4,127.15,178.224,127.879z"/>
		<path style="fill:#263238;" d="M179.184,126.757l1.87-0.083C181.054,126.674,179.828,127.824,179.184,126.757z"/>
		<path style="fill:#263238;" d="M180.358,123.782c0.109,0.007,0.221-0.027,0.311-0.103c0.185-0.157,0.208-0.435,0.052-0.62
			c-1.572-1.857-3.589-1.628-3.675-1.616c-0.241,0.03-0.412,0.25-0.382,0.491c0.03,0.241,0.249,0.411,0.49,0.382
			c0.079-0.01,1.646-0.165,2.895,1.312C180.13,123.723,180.242,123.775,180.358,123.782z"/>
		<path style="fill:#A02724;" d="M177.311,130.114c0,0,0.481,3.432,1.477,5.272c-1.177,0.666-2.713-0.138-2.713-0.138
			L177.311,130.114z"/>
		<path style="fill:#B55B52;" d="M154.372,118.971c-1.604,9.074-2.476,12.881,0.935,18.558c5.131,8.539,16.627,8.524,20.91,0.112
			c3.855-7.572,5.83-21.139-2.066-26.805C166.371,105.254,155.976,109.897,154.372,118.971z"/>
		<path style="fill:#263238;" d="M170.504,126.199c2.746-1.123,9.284-3.604,10.891-7.508c1.607-3.905-4.993-14.355-10.64-12.295
			c-14.7-3.121-24.933,3.901-24.873,15.033c0.062,11.605,4.665,18.205,12.233,19.919
			C165.683,143.061,172.236,135.125,170.504,126.199z"/>
		<path style="fill:#407BFF;" d="M149.393,129.395c-2.986-0.417-4.6,2.621-3.511,5.149c1.089,2.528,4.728,6.507,6.132,6.507
			c1.404,0,4.166-1.03,4.868-2.575C157.584,136.931,151.405,129.676,149.393,129.395z"/>
		<path style="fill:#B55B52;" d="M168.007,125.357c-0.457,1.855-0.015,3.748,0.819,5.078c1.254,2.001,3.464,1.262,4.442-0.751
			c0.88-1.812,1.288-5.036-0.609-6.343C170.79,122.053,168.53,123.236,168.007,125.357z"/>
		<path style="fill:#B55B52;" d="M146.929,161.283c-0.019,0.366-0.035,0.98-0.037,1.488l-0.001,1.62
			c0.015,1.087,0.067,2.179,0.151,3.266c0.173,2.173,0.41,4.336,0.842,6.434c0.858,4.19,2.273,8.164,4.496,11.421
			c0.816,1.063,0.5,0.883,1.197,1.368c0.583,0.39,1.454,0.797,2.392,1.134c1.905,0.671,4.086,1.208,6.305,1.623
			c4.447,0.846,9.157,1.423,13.773,1.898l0.127,4.701c-4.914,0.62-9.754,0.853-14.776,0.579c-2.509-0.169-5.047-0.418-7.72-1.088
			c-1.342-0.347-2.726-0.763-4.225-1.538c-0.746-0.395-1.533-0.885-2.337-1.621c-0.198-0.176-0.4-0.387-0.596-0.6l-0.373-0.432
			l-0.68-0.805c-1.748-2.189-3.165-4.584-4.252-7.059c-1.124-2.466-1.909-5.019-2.507-7.575c-0.588-2.559-1.009-5.129-1.206-7.708
			c-0.097-1.29-0.155-2.58-0.171-3.876c-0.003-0.649-0.011-1.298,0.015-1.955c0.027-0.683,0.052-1.261,0.124-2.083L146.929,161.283z
			"/>
		<path style="fill:#B55B52;" d="M175.794,191.169l9.908-1.563l-4.886,8.079c0,0-5.957-0.243-7.639-3.716L175.794,191.169z"/>
		<polygon style="fill:#B55B52;" points="190.604,192.333 190.628,198.338 180.816,197.686 185.702,189.607 		"/>
		<g>
			<path style="fill:#407BFF;" d="M211.487,217.918h-30.988c-0.987,0-1.537-0.727-1.229-1.625l14.307-41.692
				c0.308-0.898,1.358-1.625,2.345-1.625h30.988c0.987,0,1.537,0.727,1.229,1.625l-14.307,41.692
				C213.524,217.191,212.474,217.918,211.487,217.918z"/>
			<path style="fill:#FFFFFF;" d="M210.936,216.598h-29.954c-0.551,0-0.859-0.406-0.687-0.908l14.149-41.231
				c0.172-0.501,0.759-0.908,1.31-0.908h29.954c0.551,0,0.859,0.406,0.687,0.908l-14.149,41.231
				C212.074,216.191,211.488,216.598,210.936,216.598z"/>
		</g>
		<path style="fill:#263238;" d="M137.667,153.978l9.958,4.048l5.334,5.914l0.696,8.145c0,0-11.651,8.847-17.848,7.976
			C133.714,165.131,135.052,156.887,137.667,153.978z"/>
		<path style="fill:#263238;" d="M186.857,160.612c0.148,6.732-0.796,20.733-5.527,49.824h-37.709
			c0.633-15.347,1.381-24.961-5.955-56.458c0,0,7.171-1.568,15.283-1.959c6.346-0.306,11.545-0.508,17.123,0.001
			c3.688,0.337,7.623,0.933,10.631,1.445C184.205,154.061,186.779,157.061,186.857,160.612z"/>
		<path style="opacity:0.2;" d="M179.485,163.232l6.718,10.931c-0.348,3.887-0.865,8.549-1.595,14.122l-5.497-3.257
			C176.864,168.492,179.485,163.232,179.485,163.232z"/>
		<path style="fill:#B55B52;" d="M187.477,163.41c1.393,4.383,2.736,8.78,4.002,13.202l1.922,6.627l1.852,6.651l0.904,3.334
			l0.45,1.668c0.183,0.675,0.219,0.806,0.379,1.254c0.275,0.744,0.601,1.361,0.752,1.56c0.072,0.107,0.063,0.125,0.021,0.155
			c-0.038,0.012-0.073,0.089,0.05,0.112c0.228,0.087,0.926-0.101,1.665-0.474c0.753-0.376,1.549-0.943,2.349-1.564
			c0.795-0.631,1.585-1.341,2.37-2.08c0.769-0.734,1.549-1.57,2.245-2.308l3.967,2.525c-0.567,1.196-1.161,2.22-1.833,3.291
			c-0.661,1.062-1.393,2.093-2.233,3.094c-0.835,1.008-1.782,1.973-2.945,2.889c-1.176,0.894-2.596,1.792-4.675,2.162
			c-1.022,0.178-2.233,0.145-3.373-0.184c-1.14-0.333-2.154-0.929-2.947-1.585c-1.587-1.342-2.442-2.776-3.126-4.12
			c-0.308-0.607-0.701-1.551-0.828-1.99l-0.56-1.646l-1.116-3.294l-2.189-6.603l-2.117-6.628c-1.428-4.414-2.778-8.854-4.078-13.307
			L187.477,163.41z"/>
		<path style="fill:#263238;" d="M177.238,161.03c1.589-3.8,6.573-6.253,6.573-6.253c5.363,3.491,7.169,5.147,10.726,22.894
			c-5.183,4.536-13.789,4.536-13.789,4.536l-4.634-11.942C176.114,170.265,175.649,164.83,177.238,161.03z"/>
		<path style="fill:#B55B52;" d="M205.185,193.306l3.561-8.675l4.368,8.371c0,0-3.3,4.965-7.143,4.6L205.185,193.306z"/>
		<path style="fill:#263238;" d="M215.321,186.385c-0.173,0-0.344-0.08-0.454-0.23l-10.382-14.226
			c-0.183-0.251-0.128-0.602,0.122-0.785c0.251-0.184,0.602-0.128,0.785,0.123l10.383,14.226c0.183,0.251,0.128,0.602-0.122,0.785
			C215.552,186.35,215.436,186.385,215.321,186.385z"/>
		<polygon style="fill:#B55B52;" points="216.518,182.942 218.808,187.977 213.114,193.002 208.746,184.631 		"/>
		<path style="fill:#B55B52;" d="M181.33,210.436c0,0,9.421,71.294,12.637,99.431c4.75,41.563,15.36,97.023,15.36,97.023
			l-6.369,1.069c0,0-22.117-54.247-25.456-95.328c-10.457-30.22-25.557-102.196-25.557-102.196H181.33z"/>
		<path style="fill:#263238;" d="M208.82,400.055l-8.188,3.998c-0.353,0.173-0.521,0.545-0.402,0.896l2.64,7.816
			c0.274,0.811,1.327,1.19,2.135,0.778c3.357-1.71,3.369-1.947,7.64-4.035c2.627-1.284,6.895-3.238,10.523-5.012
			c3.548-1.735,2.072-5.265,0.403-4.834c-7.484,1.932-9.83,0.888-13.046,0.189C209.944,399.726,209.337,399.802,208.82,400.055z"/>
		<path style="fill:#B55B52;" d="M171.475,210.436c0,0-6.12,67.526-11.268,95.374c-5.407,29.247-9.45,98.948-9.509,101.081h-6.427
			c0,0-8.801-78.347-0.586-104.574c1.357-32.024-0.063-91.881-0.063-91.881H171.475z"/>
		<path style="fill:#263238;" d="M151.461,405.579h-7.324c-0.385,0-0.693,0.267-0.742,0.643l-1.088,8.365
			c-0.113,0.868,0.645,1.689,1.532,1.673c3.685-0.064,2.21-0.28,6.859-0.28c2.86,0,7.043,0.297,10.993,0.297
			c3.863,0,4.106-3.906,2.456-4.259c-7.397-1.586-8.592-3.773-11.105-5.86C152.588,405.781,152.023,405.579,151.461,405.579z"/>
		<g>
			<path style="opacity:0.2;" d="M143.762,300.385l17.067,1.875c0.694-4.08,1.398-8.792,2.092-13.867l-18.807-1.937
				C144.042,291.406,143.918,296.118,143.762,300.385z"/>
			<path style="opacity:0.2;" d="M191.742,291.354l-21.241-2.185c1.398,5.209,2.796,10.139,4.153,14.602l18.838,2.061
				C192.995,301.596,192.405,296.677,191.742,291.354z"/>
		</g>
		<path style="fill:#407BFF;" d="M181.33,210.436l13.603,93.146l-52.888-6.701c5.165-39.872-10.501-71.846,1.576-86.445H181.33z"/>
		<path style="opacity:0.2;" d="M148.585,229.552c0,0,7.538,7.144,19.735,11.328C156.439,240.753,150.932,236.531,148.585,229.552z"
			/>
	</g>
</g>
</svg>
